<svg width="107" height="196" viewBox="0 0 107 196" fill="none" xmlns="http://www.w3.org/2000/svg">
<circle cx="1.76119" cy="13.4232" r="1.76119" fill="#28C75B"/>
<circle cx="27.5918" cy="13.4232" r="1.76119" fill="#28C75B"/>
<circle cx="53.4228" cy="13.4232" r="1.76119" fill="#28C75B"/>
<circle cx="79.2538" cy="13.4232" r="1.76119" fill="#28C75B"/>
<circle cx="105.085" cy="13.4232" r="1.76119" fill="#28C75B"/>
<circle cx="1.76119" cy="39.2542" r="1.76119" fill="#28C75B"/>
<circle cx="27.5918" cy="39.2542" r="1.76119" fill="#28C75B"/>
<circle cx="53.4228" cy="39.2542" r="1.76119" fill="#28C75B"/>
<circle cx="79.2538" cy="39.2542" r="1.76119" fill="#28C75B"/>
<circle cx="105.085" cy="39.2542" r="1.76119" fill="#28C75B"/>
<circle cx="1.76119" cy="65.0852" r="1.76119" fill="#28C75B"/>
<circle cx="27.5918" cy="65.0852" r="1.76119" fill="#28C75B"/>
<circle cx="53.4228" cy="65.0852" r="1.76119" fill="#28C75B"/>
<circle cx="79.2538" cy="65.0852" r="1.76119" fill="#28C75B"/>
<circle cx="105.085" cy="65.0852" r="1.76119" fill="#28C75B"/>
<circle cx="1.76119" cy="90.9162" r="1.76119" fill="#28C75B"/>
<circle cx="27.5918" cy="90.9162" r="1.76119" fill="#28C75B"/>
<circle cx="53.4228" cy="90.9162" r="1.76119" fill="#28C75B"/>
<circle cx="79.2538" cy="90.9162" r="1.76119" fill="#28C75B"/>
<circle cx="105.085" cy="90.9162" r="1.76119" fill="#28C75B"/>
<circle cx="1.76119" cy="116.746" r="1.76119" fill="#28C75B"/>
<circle cx="27.5918" cy="116.746" r="1.76119" fill="#28C75B"/>
<circle cx="53.4228" cy="116.746" r="1.76119" fill="#28C75B"/>
<circle cx="79.2538" cy="116.746" r="1.76119" fill="#28C75B"/>
<circle cx="105.085" cy="116.746" r="1.76119" fill="#28C75B"/>
<circle cx="1.76119" cy="142.577" r="1.76119" fill="#28C75B"/>
<circle cx="27.5918" cy="142.577" r="1.76119" fill="#28C75B"/>
<circle cx="53.4228" cy="142.577" r="1.76119" fill="#28C75B"/>
<circle cx="79.2538" cy="142.577" r="1.76119" fill="#28C75B"/>
<circle cx="105.085" cy="142.577" r="1.76119" fill="#28C75B"/>
<circle cx="1.76119" cy="168.408" r="1.76119" fill="#28C75B"/>
<circle cx="27.5918" cy="168.408" r="1.76119" fill="#28C75B"/>
<circle cx="53.4228" cy="168.408" r="1.76119" fill="#28C75B"/>
<circle cx="79.2538" cy="168.408" r="1.76119" fill="#28C75B"/>
<circle cx="105.085" cy="168.408" r="1.76119" fill="#28C75B"/>
<circle cx="1.76119" cy="194.239" r="1.76119" fill="#28C75B"/>
<circle cx="27.5918" cy="194.239" r="1.76119" fill="#28C75B"/>
<circle cx="53.4228" cy="194.239" r="1.76119" fill="#28C75B"/>
<circle cx="79.2538" cy="194.239" r="1.76119" fill="#28C75B"/>
<circle cx="105.085" cy="194.239" r="1.76119" fill="#28C75B"/>
<path d="M70.5525 102.505C69.854 98.773 67.1135 97.5667 64.3936 99.7702L4.29691 149.083C1.61273 151.304 2.07431 153.726 5.3072 154.496L77.7408 171.623C80.9737 172.393 83.0576 169.983 82.3947 166.268L70.5525 102.505Z" fill="#FFD100"/>
</svg>
