<svg width="159" height="139" viewBox="0 0 159 139" fill="none" xmlns="http://www.w3.org/2000/svg">
<circle cx="1.76158" cy="1.76119" r="1.76119" fill="#FFD100"/>
<circle cx="27.5918" cy="1.76119" r="1.76119" fill="#FFD100"/>
<circle cx="53.4228" cy="1.76119" r="1.76119" fill="#FFD100"/>
<circle cx="79.2538" cy="1.76119" r="1.76119" fill="#FFD100"/>
<circle cx="105.085" cy="1.76119" r="1.76119" fill="#FFD100"/>
<circle cx="1.76119" cy="27.5922" r="1.76119" fill="#FFD100"/>
<circle cx="27.5918" cy="27.5922" r="1.76119" fill="#FFD100"/>
<circle cx="53.4228" cy="27.5922" r="1.76119" fill="#FFD100"/>
<circle cx="79.2538" cy="27.5922" r="1.76119" fill="#FFD100"/>
<circle cx="105.085" cy="27.5922" r="1.76119" fill="#FFD100"/>
<circle cx="1.76119" cy="53.4232" r="1.76119" fill="#FFD100"/>
<circle cx="27.5918" cy="53.4232" r="1.76119" fill="#FFD100"/>
<circle cx="53.4228" cy="53.4232" r="1.76119" fill="#FFD100"/>
<circle cx="79.2538" cy="53.4232" r="1.76119" fill="#FFD100"/>
<circle cx="105.085" cy="53.4232" r="1.76119" fill="#FFD100"/>
<circle cx="1.76119" cy="79.2542" r="1.76119" fill="#FFD100"/>
<circle cx="27.5918" cy="79.2542" r="1.76119" fill="#FFD100"/>
<circle cx="53.4228" cy="79.2542" r="1.76119" fill="#FFD100"/>
<circle cx="79.2538" cy="79.2542" r="1.76119" fill="#FFD100"/>
<circle cx="105.085" cy="79.2542" r="1.76119" fill="#FFD100"/>
<circle cx="1.76119" cy="105.085" r="1.76119" fill="#FFD100"/>
<circle cx="27.5918" cy="105.085" r="1.76119" fill="#FFD100"/>
<circle cx="53.4228" cy="105.085" r="1.76119" fill="#FFD100"/>
<circle cx="79.2538" cy="105.085" r="1.76119" fill="#FFD100"/>
<circle cx="105.085" cy="105.085" r="1.76119" fill="#FFD100"/>
<circle cx="1.76119" cy="130.916" r="1.76119" fill="#FFD100"/>
<circle cx="27.5918" cy="130.916" r="1.76119" fill="#FFD100"/>
<circle cx="53.4228" cy="130.916" r="1.76119" fill="#FFD100"/>
<circle cx="79.2538" cy="130.916" r="1.76119" fill="#FFD100"/>
<circle cx="105.085" cy="130.916" r="1.76119" fill="#FFD100"/>
<path d="M124.92 63.8282C126.546 61.1825 125.419 58.7704 122.401 58.3934L55.3579 50.4346C52.3535 50.0898 51.3034 51.8121 52.9975 54.27L91.0231 109.27C92.7173 111.728 95.4332 111.589 97.0734 108.975L124.92 63.8282Z" fill="#F39000"/>
</svg>
